HIERARCHY
ROOT Root
{
	OFFSET 0.000000 0.000000 0.000000
	CHANNELS 6 Xposition Yposition Zposition Xrotation Yrotation Zrotation
	End Site
	{
		OFFSET 0.000000 0.000000 0.000000
	}
}
MOTION
Frames: 181
Frame Time: 0.033333
0.005253 -1.457538 0.795498 -13.999800 -1.510700 174.144500 
0.002946 -1.474465 0.795619 -13.969800 -1.735600 174.530800 
0.001257 -1.490469 0.795693 -13.980700 -2.034100 174.859300 
-0.000114 -1.505575 0.795985 -14.072200 -2.186000 175.127100 
-0.001275 -1.519636 0.796976 -14.104600 -2.058600 175.406000 
-0.002294 -1.532931 0.798358 -14.050600 -1.731200 175.779000 
-0.003084 -1.545892 0.799465 -13.975800 -1.422400 176.277300 
-0.003284 -1.558615 0.800189 -13.864700 -1.292000 176.876500 
-0.002522 -1.570866 0.801045 -13.619300 -1.307000 177.540400 
-0.000704 -1.582557 0.802475 -13.199900 -1.309500 178.240500 
0.002024 -1.593985 0.804349 -12.709200 -1.201300 178.939000 
0.005481 -1.605676 0.806087 -12.338800 -1.021800 179.588600 
0.009583 -1.617957 0.807217 -12.223500 -0.858200 -179.843500 
0.014420 -1.630609 0.807705 -12.324500 -0.751400 -179.372500 
0.020160 -1.642956 0.807763 -12.472100 -0.710100 -179.021400 
0.026637 -1.654363 0.807590 -12.545400 -0.726900 -178.843700 
0.033025 -1.664594 0.807418 -12.579200 -0.721000 -178.905500 
0.038222 -1.673662 0.807687 -12.664800 -0.547900 -179.219400 
0.041676 -1.681541 0.808779 -12.781300 -0.164500 -179.691100 
0.043746 -1.688249 0.810623 -12.798100 0.267000 179.833200 
0.045250 -1.693992 0.812620 -12.652900 0.538900 179.437700 
0.046906 -1.698803 0.813920 -12.440600 0.616600 179.076400 
0.049185 -1.702194 0.813780 -12.256800 0.607200 178.647400 
0.052227 -1.703779 0.811985 -12.039900 0.579800 178.091200 
0.055723 -1.704370 0.808871 -11.732000 0.534300 177.407500 
0.059103 -1.705831 0.804667 -11.538700 0.507900 176.620400 
0.062179 -1.709318 0.798873 -11.761100 0.601300 175.760800 
0.065286 -1.714147 0.790877 -12.342900 0.890100 174.876000 
0.068583 -1.718892 0.780804 -12.883700 1.355300 174.045400 
0.071732 -1.723159 0.769231 -13.186600 1.869300 173.372500 
0.074587 -1.727632 0.756303 -13.474300 2.226500 172.918600 
0.077546 -1.732895 0.741858 -13.958100 2.241500 172.642000 
0.080449 -1.739255 0.726115 -14.560500 1.860100 172.490700 
0.082032 -1.747281 0.709529 -15.204300 1.184200 172.555400 
0.081537 -1.757177 0.692252 -15.980200 0.452200 172.987400 
0.080073 -1.767949 0.674421 -16.886000 0.003100 173.752400 
0.079098 -1.778445 0.656455 -17.771900 0.074000 174.628100 
0.078562 -1.789029 0.638345 -18.653100 0.487100 175.458000 
0.077927 -1.801073 0.619044 -19.741700 0.699700 176.230400 
0.077988 -1.815000 0.597512 -21.105600 0.372200 176.888100 
0.079888 -1.829869 0.574225 -22.588700 -0.251600 177.277100 
0.083035 -1.844650 0.550954 -24.069600 -0.702000 177.345500 
0.085806 -1.858805 0.529212 -25.520000 -0.824400 177.199100 
0.087765 -1.872026 0.509148 -26.869700 -0.780000 176.936400 
0.089705 -1.884192 0.489867 -28.045400 -0.723500 176.601400 
0.091971 -1.895533 0.470629 -29.108600 -0.714500 176.289000 
0.094193 -1.906674 0.451442 -30.242900 -0.817700 176.109000 
0.096309 -1.918526 0.432501 -31.658300 -1.112700 176.034600 
0.098509 -1.931431 0.413979 -33.461800 -1.653000 175.946700 
0.100429 -1.943999 0.397068 -35.452200 -2.411700 175.821400 
0.101570 -1.953519 0.384269 -37.145100 -3.170200 175.713700 
0.102230 -1.957687 0.377507 -38.204300 -3.571800 175.571400 
0.103022 -1.954512 0.376959 -38.640300 -3.478800 175.255000 
0.103820 -1.941170 0.382814 -38.430400 -3.156200 174.775400 
0.104277 -1.915053 0.396651 -37.371000 -2.885900 174.282400 
0.104958 -1.874314 0.419611 -35.458100 -2.591600 173.736900 
0.106713 -1.813964 0.452382 -32.842300 -2.148100 172.887500 
0.109149 -1.724701 0.501018 -29.240500 -1.838900 171.809700 
0.110604 -1.602969 0.579095 -24.190200 -2.012100 171.187700 
0.109499 -1.461610 0.695823 -18.189700 -2.339400 171.623500 
0.105659 -1.322621 0.841510 -12.743500 -2.089000 172.788800 
0.100439 -1.197867 0.992569 -8.785600 -1.194900 173.847200 
0.095227 -1.083381 1.131395 -5.764700 -0.202000 174.473000 
0.090470 -0.971812 1.254963 -2.723500 0.652700 174.864700 
0.086131 -0.862048 1.366210 0.522000 1.572100 175.164400 
0.082311 -0.755792 1.465544 3.710100 2.635700 175.327600 
0.079162 -0.652478 1.552202 6.868100 3.676200 175.357600 
0.076591 -0.550809 1.627271 10.205300 4.642600 175.300800 
0.074460 -0.451081 1.692013 13.730400 5.644100 175.124500 
0.072911 -0.353987 1.746087 17.330000 6.677600 174.815900 
0.072067 -0.259392 1.789052 20.975500 7.631600 174.458200 
0.071666 -0.167025 1.821508 24.699300 8.494900 174.084600 
0.071455 -0.076909 1.843923 28.511900 9.325800 173.631200 
0.071565 0.011001 1.855935 32.383000 10.101600 173.094000 
0.071973 0.096835 1.857441 36.260600 10.770500 172.537200 
0.072199 0.180716 1.849084 40.118000 11.358600 171.954800 
0.072075 0.262758 1.831081 43.925000 11.902400 171.325200 
0.071938 0.342915 1.802793 47.575700 12.378200 170.726300 
0.071577 0.421157 1.764187 51.006800 12.765500 170.201700 
0.070218 0.497802 1.716197 54.313000 13.090500 169.680100 
0.067993 0.573103 1.658854 57.501400 13.376400 169.197000 
0.065763 0.646788 1.591231 60.367200 13.598000 168.909200 
0.063170 0.718866 1.514231 62.923400 13.689100 168.743000 
0.059111 0.790260 1.430005 65.458200 13.633200 168.468200 
0.054630 0.861124 1.337295 67.760300 13.564800 168.290300 
0.052786 0.928911 1.232713 69.187000 13.631200 168.773600 
0.054991 0.990204 1.120137 70.214500 13.624400 169.940000 
0.059515 1.045317 1.013490 72.721100 13.080500 171.086600 
0.064486 1.098746 0.925131 77.497900 11.765000 171.903700 
0.070134 1.154326 0.855998 82.651000 9.917700 172.883100 
0.076838 1.210889 0.801840 85.973600 8.156300 174.136600 
0.083919 1.261963 0.762137 87.617900 6.823000 175.071800 
0.090556 1.302446 0.737194 88.944500 5.726900 175.459000 
0.096164 1.334135 0.722495 89.940800 4.433100 175.877600 
0.099944 1.362304 0.712163 89.322100 2.677700 176.797200 
0.101580 1.389416 0.705038 86.537400 0.583900 177.928700 
0.102067 1.414882 0.702600 82.196700 -1.450200 178.872400 
0.103182 1.438326 0.703443 77.000900 -3.119200 179.631300 
0.106281 1.459652 0.704174 71.428400 -4.323900 -179.948100 
0.111549 1.478359 0.704350 66.156500 -4.948500 179.635700 
0.118295 1.494422 0.706453 61.855800 -5.055300 178.478000 
0.125636 1.507924 0.712447 58.673600 -5.122900 177.501900 
0.132893 1.518402 0.722927 56.355300 -5.490800 177.216600 
0.140129 1.525821 0.737382 54.574200 -5.898200 177.089900 
0.147848 1.531518 0.753252 52.875300 -5.977200 176.573000 
0.155834 1.537208 0.766811 50.904300 -5.734700 175.893200 
0.163032 1.543520 0.776229 48.907700 -5.246100 175.371600 
0.168742 1.550253 0.781921 47.533100 -4.428900 174.849800 
0.173269 1.557426 0.783763 46.995500 -3.474700 174.282800 
0.177447 1.565366 0.780471 46.917100 -2.963500 174.063900 
0.182240 1.573761 0.772384 47.128400 -3.225100 174.292300 
0.188257 1.580878 0.762437 48.027500 -4.029700 174.471400 
0.194699 1.584343 0.753204 49.867500 -5.019300 174.318700 
0.199492 1.583022 0.744804 52.269100 -5.918600 174.169600 
0.201534 1.577650 0.736468 54.620300 -6.314800 174.273600 
0.202194 1.569319 0.728833 56.552500 -5.938800 174.383900 
0.203500 1.558437 0.724098 57.971000 -5.232300 174.288500 
0.205575 1.544752 0.724553 58.955100 -5.005400 174.119500 
0.207162 1.526291 0.731589 59.598500 -5.448200 173.961800 
0.207780 1.498544 0.745741 59.634100 -5.979700 173.726700 
0.207902 1.456736 0.767227 58.316500 -6.054800 173.456800 
0.207543 1.398826 0.796356 55.086000 -5.592100 173.242900 
0.205842 1.325319 0.834156 50.305900 -4.688900 172.925600 
0.202359 1.237531 0.883519 44.981600 -3.635600 172.411200 
0.198173 1.137338 0.948202 39.694200 -3.230000 172.123700 
0.195392 1.028111 1.028352 34.249700 -4.303300 172.544700 
0.195920 0.914527 1.116858 28.439800 -6.836100 173.476500 
0.200309 0.800334 1.202149 22.439200 -10.003000 174.236800 
0.207554 0.686773 1.276106 16.451500 -13.118800 174.439400 
0.216045 0.573819 1.337973 10.517100 -16.089700 174.179200 
0.224643 0.461607 1.389642 4.557300 -18.991500 173.569400 
0.233302 0.349910 1.430721 -1.598400 -21.805000 172.523000 
0.242606 0.237673 1.460210 -8.165200 -24.556000 170.942100 
0.252794 0.123982 1.479281 -15.302000 -27.294300 168.809300 
0.263624 0.008771 1.489834 -23.065700 -29.901300 166.093300 
0.274856 -0.107729 1.492512 -31.439200 -32.130800 162.768400 
0.286195 -0.225430 1.487686 -40.344000 -33.831300 158.932800 
0.297124 -0.344152 1.476644 -49.641300 -35.018700 154.787100 
0.307172 -0.463128 1.460581 -59.129000 -35.714700 150.536400 
0.316090 -0.580949 1.439525 -68.531600 -35.837100 146.400500 
0.323710 -0.696346 1.413073 -77.608900 -35.371800 142.586400 
0.329999 -0.808853 1.381338 -86.301900 -34.503100 139.149200 
0.335041 -0.918169 1.344313 -94.583200 -33.373600 136.076600 
0.338709 -1.023549 1.301237 -102.294300 -31.937000 133.481700 
0.340850 -1.124666 1.251595 -109.428300 -30.264000 131.395800 
0.341826 -1.222073 1.195664 -116.250000 -28.635800 129.560300 
0.342186 -1.315946 1.133295 -122.821700 -27.100000 127.842700 
0.341909 -1.405506 1.063749 -128.943300 -25.408100 126.484400 
0.341020 -1.490723 0.987440 -134.813800 -23.588800 125.442600 
0.340490 -1.573149 0.905652 -140.892000 -21.930100 124.188000 
0.340716 -1.653329 0.818096 -146.778500 -20.243800 122.938300 
0.339392 -1.728795 0.723793 -151.299300 -18.076000 123.200100 
0.332583 -1.796763 0.626207 -154.193200 -15.741600 125.875300 
0.318968 -1.858714 0.535658 -156.519900 -14.391000 129.814000 
0.301772 -1.919044 0.464241 -159.162800 -14.749400 133.289600 
0.284201 -1.977753 0.417505 -161.974600 -15.990300 136.020800 
0.266680 -2.029750 0.391307 -164.198000 -16.877200 138.843100 
0.249509 -2.071357 0.376258 -165.190900 -17.340000 141.960800 
0.234450 -2.103067 0.365234 -164.693900 -18.037900 144.919400 
0.222456 -2.126399 0.356619 -162.758000 -19.084900 147.852900 
0.212512 -2.141957 0.351399 -159.759800 -19.934500 151.201100 
0.204150 -2.150768 0.349410 -156.179700 -20.268700 154.659600 
0.198366 -2.154598 0.349100 -152.172300 -20.243300 157.586100 
0.194902 -2.154669 0.349580 -147.655100 -19.909800 159.949000 
0.191392 -2.151537 0.351064 -142.727200 -19.117800 162.089500 
0.186324 -2.145701 0.353517 -137.589300 -17.910700 164.042000 
0.180594 -2.137199 0.356486 -132.250700 -16.516000 165.645400 
0.175448 -2.125701 0.359987 -126.640400 -15.082200 166.954200 
0.170703 -2.111512 0.364091 -120.795700 -13.677400 168.157300 
0.165631 -2.095424 0.368127 -114.786800 -12.287300 169.284100 
0.159944 -2.077898 0.371630 -108.652400 -10.725800 170.238700 
0.153388 -2.059638 0.375122 -102.428900 -8.842300 171.049100 
0.145605 -2.041682 0.378879 -96.166100 -6.714800 171.860700 
0.136883 -2.023763 0.382265 -89.971600 -4.323300 172.659700 
0.127869 -2.004388 0.385468 -83.954700 -1.397300 173.278300 
0.118229 -1.984144 0.390596 -78.056800 1.920100 173.822400 
0.107023 -1.967027 0.399499 -72.208100 4.725800 174.715500 
0.095283 -1.956128 0.410682 -66.656600 6.242200 175.991800 
0.086728 -1.949432 0.419956 -61.762200 6.632800 176.907900 
0.083995 -1.942592 0.424404 -57.452000 6.462500 176.784300 
0.085448 -1.934367 0.424294 -53.241200 5.864500 175.915600 
